<svg width="14" height="15" viewBox="0 0 14 15" fill="none" xmlns="http://www.w3.org/2000/svg">
<path d="M13.4444 7.5V10.5C13.4444 12.3856 13.4444 13.3284 12.8587 13.9142C12.2729 14.5 11.3301 14.5 9.44444 14.5H2.94444C1.87055 14.5 1 13.6294 1 12.5556V12.5556C1 11.4817 1.87056 10.6111 2.94444 10.6111H9.44445C11.3301 10.6111 12.2729 10.6111 12.8587 10.0253C13.4444 9.43954 13.4444 8.49673 13.4444 6.61111V4.5C13.4444 2.61438 13.4444 1.67157 12.8587 1.08579C12.2729 0.5 11.3301 0.5 9.44444 0.5H5C3.11438 0.5 2.17157 0.5 1.58579 1.08579C1 1.67157 1 2.61438 1 4.5V12.5556" stroke="white"/>
<path d="M4.88892 4.38965L9.55558 4.38965" stroke="white" stroke-linecap="round"/>
</svg>
