<svg width="45" height="46" fill="none" xmlns="http://www.w3.org/2000/svg" data-reactroot="">
    <g clip-path="url(#ann-icon_svg__clip0)">
        <path d="M22.771 25.701v-8.056c-.229.02-.454.056-.684.067h-6.58a.66.66 0 00-.659.66v.66h-1.983a.661.661 0 00-.66.66v3.96a.66.66 0 00.66.66h1.983v.66a.661.661 0 00.66.66h.4l2.655 7.074a1.313 1.313 0 00.971.822 1.294 1.294 0 001.193-.364l1.586-1.572a1.318 1.318 0 00.243-1.528l-2.212-4.433h1.753c.223.014.447.05.674.07zM33.226 12.749a.653.653 0 00-.318-.274s-.007-.007-.01-.008h-.04a.659.659 0 00-.184-.037.614.614 0 00-.128.026.716.716 0 00-.074.014.655.655 0 00-.289.188c-.005.004-.013.006-.018.011a13.894 13.894 0 01-8.073 4.784v8.442c3.164.61 6.018 2.3 8.073 4.783.006.007.015.01.021.017a.64.64 0 00.164.127c.02.012.035.029.056.039a.677.677 0 00.492.019s.007-.007.01-.008a.644.644 0 00.319-.274.64.64 0 00.109-.34V13.089a.64.64 0 00-.11-.34z"
              fill="#9CA3AF"></path>
    </g>
    <defs>
        <clipPath id="ann-icon_svg__clip0">
            <path fill="#9CA3AF" transform="translate(.665 .888)" d="M0 0h44.243v44.243H0z"></path>
        </clipPath>
    </defs>
</svg>