<svg width="14" height="15" viewBox="0 0 14 15" fill="none" xmlns="http://www.w3.org/2000/svg">
<path d="M1.47715 6.435C0.864222 6.435 0.374304 5.93858 0.392452 5.34409C0.42186 4.38076 0.499564 3.77556 0.684696 3.2782C1.0249 2.36422 1.50088 1.81635 2.22502 1.41045C2.86412 1.05223 3.83165 0.875 5.70395 0.875H8.29605C10.1683 0.875 11.1359 1.05223 11.775 1.41045C12.4991 1.81635 12.9751 2.36422 13.3153 3.2782C13.5004 3.77556 13.5781 4.38075 13.6075 5.34408C13.6257 5.93857 13.1358 6.435 12.5228 6.435C11.8654 6.435 11.4558 7.05849 11.4558 7.65921C11.4558 8.25994 11.8654 8.88343 12.5228 8.88343C13.1366 8.88343 13.6228 9.38043 13.5958 9.96703C13.5594 10.7549 13.4792 11.2816 13.3153 11.7218C12.9751 12.6358 12.4991 13.1837 11.775 13.5895C11.1359 13.9478 10.1683 14.125 8.29605 14.125H5.70395C3.83165 14.125 2.86412 13.9478 2.22502 13.5895C1.50088 13.1837 1.0249 12.6358 0.684696 11.7218L0.333253 11.8526L0.684696 11.7218C0.52084 11.2816 0.440605 10.7549 0.404239 9.96702C0.377163 9.38043 0.863362 8.88343 1.47715 8.88343C2.13455 8.88343 2.54418 8.25994 2.54418 7.65921C2.54418 7.05849 2.13455 6.435 1.47715 6.435Z" stroke="white" stroke-width="0.75"/>
<path d="M6.52432 4.88015C6.67399 4.41949 7.3257 4.41949 7.47537 4.88015L7.80436 5.89265C7.87129 6.09866 8.06327 6.23814 8.27988 6.23814H9.34449C9.82885 6.23814 10.0302 6.85795 9.63838 7.14265L8.7771 7.76841C8.60186 7.89573 8.52853 8.12141 8.59546 8.32742L8.92445 9.33992C9.07412 9.80058 8.54688 10.1836 8.15503 9.89894L7.29374 9.27318C7.11849 9.14586 6.8812 9.14586 6.70595 9.27318L5.84467 9.89894C5.45281 10.1836 4.92557 9.80058 5.07525 9.33992L5.40423 8.32742C5.47117 8.12141 5.39784 7.89573 5.22259 7.76841L4.36131 7.14265C3.96945 6.85795 4.17084 6.23814 4.6552 6.23814H5.71981C5.93642 6.23814 6.1284 6.09866 6.19534 5.89265L6.52432 4.88015Z" stroke="white" stroke-width="0.75" stroke-linecap="round" stroke-linejoin="round"/>
</svg>
