<svg width="21" height="18" viewBox="0 0 21 18" fill="none" xmlns="http://www.w3.org/2000/svg">
<path fill-rule="evenodd" clip-rule="evenodd" d="M1.44364 7.74888C7.08077 5.20867 10.8397 3.534 12.7206 2.72489C18.0907 0.414697 19.2065 0.0133926 19.9338 0.000141289C20.0938 -0.00277319 20.4514 0.0382296 20.6831 0.232668C20.8787 0.396848 20.9326 0.618632 20.9583 0.774293C20.9841 0.929954 21.0162 1.28455 20.9907 1.56163C20.6997 4.7241 19.4405 12.3986 18.7999 15.9406C18.5288 17.4394 17.9951 17.9419 17.4784 17.9911C16.3554 18.098 15.5027 17.2235 14.4151 16.4861C12.7132 15.3323 11.7517 14.614 10.0997 13.488C8.19056 12.1868 9.42819 11.4716 10.5162 10.3027C10.801 9.99686 15.7486 5.34226 15.8444 4.92001C15.8564 4.86721 15.8675 4.67036 15.7544 4.56642C15.6414 4.46248 15.4745 4.49802 15.3541 4.52629C15.1834 4.56636 12.4646 6.42501 7.19761 10.1022C6.42588 10.6503 5.72687 10.9174 5.10058 10.9034C4.41015 10.888 3.08204 10.4996 2.09473 10.1677C0.883743 9.76056 -0.0787216 9.5453 0.00508745 8.85385C0.0487404 8.4937 0.528258 8.12538 1.44364 7.74888Z" fill="#9CA3AF"/>
</svg>
