<svg width="24" height="24" viewBox="26 0 24 24" fill="none" xmlns="http://www.w3.org/2000/svg">
<path d="M31.8485 13.9203C35.4872 15.2264 39.4359 13.3147 40.6683 9.6504L42.5507 10.3261C40.9662 15.0373 35.8893 17.4953 31.211 15.816L31.8485 13.9203ZM40.6683 9.6504C40.9768 8.73296 41.0856 7.79513 41.0194 6.88356L43.0015 6.76774C43.0868 7.94323 42.946 9.15051 42.5507 10.3261L40.6683 9.6504ZM44.6873 13.954C45.5919 11.2644 44.7821 8.37607 42.8441 6.51282L44.2004 5.06381C46.6882 7.45558 47.7338 11.1683 46.5697 14.6297L44.6873 13.954ZM35.8675 18.2239C39.5062 19.53 43.455 17.6183 44.6873 13.954L46.5697 14.6297C44.9853 19.3409 39.9083 21.7989 35.23 20.1196L35.8675 18.2239ZM31.9844 14.849C32.7913 16.369 34.1381 17.6031 35.8675 18.2239L35.23 20.1196C33.0075 19.3218 31.2734 17.732 30.2372 15.7799L31.9844 14.849ZM41.0194 6.88356C40.9797 6.33603 40.9402 5.82122 40.962 5.432C40.9794 5.12194 41.0516 4.36333 41.7611 4.03074L42.6194 5.85943C42.8097 5.77021 42.9057 5.619 42.9406 5.53325C42.9643 5.47531 42.9524 5.46827 42.9463 5.57764C42.9337 5.80333 42.9572 6.15713 43.0015 6.76774L41.0194 6.88356ZM42.8441 6.51282C42.67 6.34543 42.5313 6.21226 42.4108 6.10256C42.2884 5.99119 42.2096 5.9271 42.1581 5.89103C42.1017 5.85156 42.1271 5.88095 42.2127 5.90186C42.3284 5.93013 42.4796 5.92495 42.6194 5.85943L41.7611 4.03074C42.4089 3.72712 42.9797 4.03781 43.2707 4.24157C43.5609 4.44471 43.8854 4.76094 44.2004 5.06381L42.8441 6.51282ZM31.211 15.816C31.462 15.9061 31.7189 15.8255 31.878 15.6598C32.0507 15.48 32.1446 15.1507 31.9844 14.849L30.2372 15.7799C29.9343 15.2094 30.0958 14.606 30.4428 14.2449C30.7761 13.8978 31.3138 13.7284 31.8485 13.9203L31.211 15.816Z" fill="url(#paint0_linear)"/>
<path d="M29.8743 6.13414L29.8 6.16257C29.322 6.34547 29.083 6.43692 28.996 6.55556C28.8668 6.73159 28.8668 6.97105 28.996 7.14707C29.083 7.26572 29.322 7.35717 29.8 7.54007L29.8743 7.56849C30.2326 7.70557 30.4117 7.77411 30.5677 7.86924C30.8875 8.06432 31.1462 8.34532 31.3141 8.68024C31.396 8.84356 31.4495 9.02774 31.5565 9.39609L31.5565 9.3961C31.7071 9.91465 31.7823 10.1739 31.8748 10.2653C32.0696 10.4578 32.3829 10.4578 32.5777 10.2653C32.6702 10.1739 32.7455 9.91466 32.896 9.3961L32.896 9.3961C33.003 9.02774 33.0565 8.84356 33.1384 8.68024C33.3063 8.34532 33.565 8.06432 33.8849 7.86924C34.0408 7.77411 34.22 7.70557 34.5782 7.56849L34.5782 7.56849L34.6525 7.54007C35.1305 7.35717 35.3695 7.26572 35.4565 7.14707C35.5857 6.97105 35.5857 6.73159 35.4565 6.55556C35.3695 6.43692 35.1305 6.34547 34.6525 6.16257L34.5782 6.13414C34.22 5.99707 34.0408 5.92853 33.8849 5.8334C33.565 5.63832 33.3063 5.35731 33.1384 5.0224C33.0565 4.85908 33.003 4.6749 32.896 4.30654L32.896 4.30653C32.7455 3.78798 32.6702 3.5287 32.5777 3.43733C32.3829 3.24486 32.0696 3.24486 31.8748 3.43733C31.7823 3.5287 31.7071 3.78798 31.5565 4.30654L31.5565 4.30654C31.4495 4.6749 31.396 4.85908 31.3141 5.0224C31.1462 5.35731 30.8875 5.63832 30.5677 5.8334C30.4117 5.92853 30.2326 5.99707 29.8743 6.13414Z" stroke="url(#paint1_linear)" stroke-width="2"/>
<defs>
<linearGradient id="paint0_linear" x1="31.6788" y1="17.7826" x2="43.1564" y2="21.6427" gradientUnits="userSpaceOnUse">
<stop stop-color="#FBF4C2"/>
<stop offset="1" stop-color="#E8C95E"/>
</linearGradient>
<linearGradient id="paint1_linear" x1="35.5628" y1="11.7026" x2="28" y2="11.7026" gradientUnits="userSpaceOnUse">
<stop stop-color="#FBF4C2"/>
<stop offset="1" stop-color="#FBF4C2"/>
</linearGradient>
</defs>
</svg>
