<svg width="21" height="22" viewBox="0 0 21 22" fill="none" xmlns="http://www.w3.org/2000/svg">
<path fill-rule="evenodd" clip-rule="evenodd" d="M9.05072 0C8.50341 0 8.03934 0.40253 7.962 0.94444L7.55353 3.803C6.7809 4.09769 6.06788 4.51325 5.43759 5.02656L2.7558 3.9501C2.24769 3.7462 1.66708 3.94686 1.39342 4.42095L0.147595 6.57904C-0.126331 7.05312 -0.00977812 7.65631 0.420984 7.9943L2.69322 9.77794C2.62985 10.1759 2.59681 10.5841 2.59681 11C2.59681 11.4159 2.62985 11.824 2.69322 12.222L0.420984 14.0057C-0.00977812 14.3437 -0.126331 14.9469 0.147595 15.4209L1.39342 17.579C1.66708 18.0531 2.24769 18.2538 2.7558 18.0499L5.43759 16.9734C6.06788 17.4867 6.7809 17.9023 7.55353 18.197L7.962 21.0556C8.03934 21.5975 8.50341 22 9.05072 22H11.5429C12.0902 22 12.5543 21.5975 12.6316 21.0556L13.0401 18.197C13.8127 17.9023 14.5257 17.4868 15.156 16.9735L17.8376 18.0499C18.3457 18.2538 18.9263 18.0531 19.1999 17.579L20.446 15.4209C20.7197 14.9469 20.6031 14.3437 20.1726 14.0057L17.9004 12.2221C17.9638 11.8241 17.9968 11.4159 17.9968 11C17.9968 10.8642 17.9933 10.7292 17.9863 10.5951C17.9721 10.3186 17.9431 10.0459 17.9004 9.77787L20.1726 7.9943C20.6031 7.65631 20.7197 7.05312 20.446 6.57904L19.1999 4.42095C18.9263 3.94686 18.3457 3.7462 17.8376 3.9501L15.156 5.02649C14.5257 4.51321 13.8127 4.09769 13.0401 3.803L12.6316 0.94444C12.5543 0.40253 12.0902 0 11.5429 0H9.05072ZM10.2969 14.3C12.1195 14.3 13.5969 12.8225 13.5969 11C13.5969 9.17746 12.1195 7.7 10.2969 7.7C8.47438 7.7 6.99692 9.17746 6.99692 11C6.99692 12.8225 8.47438 14.3 10.2969 14.3Z" fill="url(#paint0_linear_3145_2084)"/>
<defs>
<linearGradient id="paint0_linear_3145_2084" x1="18.4257" y1="22" x2="0" y2="22" gradientUnits="userSpaceOnUse">
<stop stop-color="#FBF4C2"/>
<stop offset="1" stop-color="#E8C95E"/>
</linearGradient>
</defs>
</svg>
