<svg width="24" height="24" viewBox="0 0 24 24" fill="none" xmlns="http://www.w3.org/2000/svg">
<path d="M12 5V3M12 21V19M16.9497 7.05025L18.364 5.63604M5.63604 18.364L7.05025 16.9497M19 12H21M3 12H5M16.9497 16.9497L18.364 18.364M5.63604 5.63604L7.05025 7.05025M16 12C16 14.2091 14.2091 16 12 16C9.79086 16 8 14.2091 8 12C8 9.79086 9.79086 8 12 8C14.2091 8 16 9.79086 16 12Z" stroke="url(#paint0_linear)" stroke-width="2" stroke-linecap="round"/>
<defs>
<linearGradient id="paint0_linear" x1="-2.40306" y1="26.0464" x2="19.2994" y2="-10.0713" gradientUnits="userSpaceOnUse">
<stop stop-color="#FBF4C2"/>
<stop offset="0.721875" stop-color="#E8C95E"/>
</linearGradient>
</defs>
</svg>
