<svg width="16" height="16" viewBox="0 0 16 16" fill="none" xmlns="http://www.w3.org/2000/svg">
<rect width="16" height="16" rx="4" fill="url(#paint0_linear_3219_24508)"/>
<path d="M6 3C5.72386 3 5.5 3.22386 5.5 3.5L5.5 5C5.5 5.27614 5.27614 5.5 5 5.5L3.5 5.5C3.22386 5.5 3 5.72386 3 6C3 6.27614 3.22386 6.5 3.5 6.5L5 6.5C5.82843 6.5 6.5 5.82843 6.5 5L6.5 3.5C6.5 3.22386 6.27614 3 6 3Z" fill="#FCFCFD"/>
<path d="M5.5 12.5C5.5 12.7761 5.72386 13 6 13C6.27614 13 6.5 12.7761 6.5 12.5L6.5 11C6.5 10.1716 5.82843 9.5 5 9.5L3.5 9.5C3.22386 9.5 3 9.72386 3 10C3 10.2761 3.22386 10.5 3.5 10.5L5 10.5C5.27614 10.5 5.5 10.7239 5.5 11L5.5 12.5Z" fill="#FCFCFD"/>
<path d="M10.5 12.5C10.5 12.7761 10.2761 13 10 13C9.72386 13 9.5 12.7761 9.5 12.5L9.5 11C9.5 10.1716 10.1716 9.5 11 9.5H12.5C12.7761 9.5 13 9.72386 13 10C13 10.2761 12.7761 10.5 12.5 10.5H11C10.7239 10.5 10.5 10.7239 10.5 11L10.5 12.5Z" fill="#FCFCFD"/>
<path d="M10.5 3.5C10.5 3.22386 10.2761 3 10 3C9.72386 3 9.5 3.22386 9.5 3.5V5C9.5 5.82843 10.1716 6.5 11 6.5H12.5C12.7761 6.5 13 6.27614 13 6C13 5.72386 12.7761 5.5 12.5 5.5H11C10.7239 5.5 10.5 5.27614 10.5 5V3.5Z" fill="#FCFCFD"/>
<defs>
<linearGradient id="paint0_linear_3219_24508" x1="14.3158" y1="16" x2="0" y2="16" gradientUnits="userSpaceOnUse">
<stop stop-color="#FBF4C2"/>
<stop offset="1" stop-color="#E8C95E"/>
</linearGradient>
</defs>
</svg>
