<svg xmlns="http://www.w3.org/2000/svg" xmlns:xlink="http://www.w3.org/1999/xlink" viewBox="0 0 180.41 198.46"><defs><style>.cls-1{fill:url(#linear-gradient);}.cls-2{fill:url(#linear-gradient-2);}</style><linearGradient id="linear-gradient" x1="17.22" y1="16.1" x2="104.75" y2="158.11" gradientUnits="userSpaceOnUse"><stop offset="0" stop-color="#00fef3"/><stop offset="1" stop-color="#0053f4"/></linearGradient><linearGradient id="linear-gradient-2" x1="27.07" y1="10.03" x2="114.6" y2="152.03" xlink:href="#linear-gradient"/></defs><g id="Layer_2" data-name="Layer 2"><g id="Layer_1-2" data-name="Layer 1"><path class="cls-1" d="M121.48,139.82a7.17,7.17,0,0,1-5.11,2.13H10.51a10.51,10.51,0,1,0,0,21H116.37a28.06,28.06,0,0,0,20-8.29l2.25-2.28-.14-.11a28.24,28.24,0,0,0-22.08-45.82H46a25,25,0,0,1,0-50h80.42a10.51,10.51,0,1,0,0-21H46a46,46,0,0,0,0,92h70.37a7.24,7.24,0,0,1,5.51,11.94Z"/><path class="cls-2" d="M161.7,89.69q-2.14-2.14-4.52-4.1a46.51,46.51,0,0,0,9.13-7.09A46,46,0,0,0,133.82,0H18.21a10.51,10.51,0,0,0,0,21H133.82a25,25,0,0,1,0,50H54a10.51,10.51,0,0,0,0,21h62.67a42.72,42.72,0,0,1,0,85.44H10.5a10.51,10.51,0,0,0,0,21H116.67a63.68,63.68,0,0,0,45-108.77Z"/></g></g></svg>