<svg xmlns="http://www.w3.org/2000/svg" xmlns:xlink="http://www.w3.org/1999/xlink"
     viewBox="0 0 1981.92 353.33">
    <defs>
        <style>.cls-1{fill:url(#linear-gradient);}.cls-2{fill:url(#linear-gradient-2);}.cls-3{fill:#0053f4;}</style>
        <linearGradient id="linear-gradient" x1="30.66" y1="28.66" x2="186.5" y2="281.49"
                        gradientUnits="userSpaceOnUse">
            <stop offset="0" stop-color="#00fef3"/>
            <stop offset="1" stop-color="#0053f4"/>
        </linearGradient>
        <linearGradient id="linear-gradient-2" x1="48.2" y1="17.85" x2="204.04" y2="270.67"
                        xlink:href="#linear-gradient"/>
    </defs>
    <g id="Layer_2" data-name="Layer 2">
        <g id="Layer_1-2" data-name="Layer 1">
            <path class="cls-1"
                  d="M216.28,248.94a12.82,12.82,0,0,1-9.09,3.79H18.7a18.71,18.71,0,0,0,0,37.42H207.19a50,50,0,0,0,35.54-14.76l4-4.07-.25-.19a50.27,50.27,0,0,0-39.29-81.58H81.89a44.48,44.48,0,0,1,0-89H225.08a18.71,18.71,0,0,0,0-37.42H81.89a81.89,81.89,0,0,0,0,163.78h125.3a12.9,12.9,0,0,1,9.8,21.26Z"/>
            <path class="cls-2"
                  d="M287.88,159.69c-2.55-2.56-5.24-5-8-7.31a82.58,82.58,0,0,0,16.25-12.63A81.9,81.9,0,0,0,238.25,0H32.43a18.72,18.72,0,1,0,0,37.43H238.25a44.47,44.47,0,0,1,0,88.94H96.13a18.71,18.71,0,0,0,0,37.42H207.72a76.06,76.06,0,0,1,0,152.12H18.7a18.71,18.71,0,0,0,0,37.42h189a113.36,113.36,0,0,0,80.16-193.64Z"/>
            <path class="cls-3"
                  d="M599.67,230.32c0,17.08-6.08,31.27-18.24,42.27s-27.21,16.5-44.87,16.5h-86V86.46h79.89c17.37,0,31.85,5.5,43.71,16.21s17.95,24.31,17.95,40.81c0,16.79-6.37,30.4-19.1,40.53C590.7,194.14,599.67,209.77,599.67,230.32ZM490.54,123.8v44.58h39.94c12.45,0,21.71-9.56,21.71-22.29s-9-22.29-21.71-22.29Zm46,128c13.61,0,23.45-10.14,23.45-24,0-13.61-9.84-23.74-23.45-23.74h-46v47.77Z"/>
            <path class="cls-3"
                  d="M756,289.09l-12.16-36.48H663.06l-12.15,36.48H607.77L678.7,86.46h49.5l71.21,202.63ZM675.8,215.27h55.58l-27.79-82.79Z"/>
            <path class="cls-3"
                  d="M832.41,262.75c-20-20.27-29.82-45.16-29.82-75s9.85-55,29.82-75q30-30.4,75.55-30.4c36.77,0,69.77,18.53,87.13,47.77l-34.44,20c-10.13-18.24-29.53-28.95-52.69-28.95-19.68,0-35.6,6.08-47.76,18.53-11.87,12.45-18,28.37-18,48.05,0,19.4,6.08,35.32,18,47.76C872.36,248,888.28,254.06,908,254.06c23.16,0,43.13-11,52.69-28.66l34.44,20C977.73,274.61,945,293.14,908,293.14Q862.38,293.14,832.41,262.75Z"/>
            <path class="cls-3" d="M1178,289.09h-46l-72.37-94.95v94.95h-40V86.46h40V175.9l69.47-89.44h46l-75,98.42Z"/>
            <path class="cls-3"
                  d="M1175.73,243.06l34.16-20c7.81,20.55,23.44,31,46.6,31,22.29,0,32.42-9,32.42-21.42q0-10.86-9.55-16.5c-6.37-4-17.66-8.39-34.16-13-18.23-5.5-29.23-9.84-42-18.81-12.45-9.27-19.11-23.16-19.11-41.69,0-18.23,6.37-33,19.4-43.71,13-11,29-16.5,47.18-16.5,32.71,0,58.48,16.79,72.37,45.45l-33.58,19.4c-8.1-17.37-21.13-26.06-38.79-26.06-16.5,0-26.63,8.4-26.63,20.27a19,19,0,0,0,7.82,15.63c5.5,3.76,15.63,8.1,30.68,12.73l13.9,4.64a116,116,0,0,1,13,4.92,58.15,58.15,0,0,1,12.74,6.08c6.08,3.76,15.34,11,19.1,17.94,4.35,6.95,7.53,17.08,7.53,28.66,0,18.82-6.95,33.58-20.55,44.58s-31.26,16.5-53,16.5C1215.1,293.14,1187,274,1175.73,243.06Z"/>
            <path class="cls-3"
                  d="M1393.42,250.88h85.39v38.21H1353.47V86.46h123.9v38.21h-83.95V167.8h76.71v37.63h-76.71Z"/>
            <path class="cls-3"
                  d="M1640.34,289.09l-12.16-36.48h-80.77l-12.15,36.48h-43.14l70.93-202.63h49.5l71.21,202.63Zm-80.19-73.82h55.58l-27.79-82.79Z"/>
            <path class="cls-3" d="M1822.71,86.46v38.21H1768V289.09h-40V124.67h-54.42V86.46Z"/>
            <path class="cls-3"
                  d="M1828.79,243.06l34.16-20c7.81,20.55,23.44,31,46.6,31,22.29,0,32.42-9,32.42-21.42q0-10.86-9.55-16.5c-6.37-4-17.66-8.39-34.16-13-18.23-5.5-29.23-9.84-42-18.81-12.45-9.27-19.11-23.16-19.11-41.69,0-18.23,6.37-33,19.4-43.71,13-11,29-16.5,47.18-16.5,32.71,0,58.48,16.79,72.37,45.45l-33.58,19.4c-8.1-17.37-21.13-26.06-38.79-26.06-16.5,0-26.63,8.4-26.63,20.27a19,19,0,0,0,7.82,15.63c5.5,3.76,15.63,8.1,30.68,12.73l13.9,4.64a116,116,0,0,1,13,4.92,58.15,58.15,0,0,1,12.74,6.08c6.08,3.76,15.34,11,19.1,17.94,4.35,6.95,7.53,17.08,7.53,28.66,0,18.82-7,33.58-20.55,44.58s-31.26,16.5-53,16.5C1868.16,293.14,1840.08,274,1828.79,243.06Z"/>
        </g>
    </g>
</svg>
